<svg
        xmlns="http://www.w3.org/2000/svg"
        viewBox="0 0 1003.4 1003.4"
        height="1003.4"
        width="1003.4"
        xml:space="preserve"
        id="svg2"
        version="1.1">
    <defs
            id="defs6"/>
    <g
            transform="matrix(1.3333333,0,0,-1.3333333,0,1003.4)"
            id="g10">
        <g
                transform="scale(0.1)"
                id="g12">
        <path
                id="path14"
                style="fill:#f25272;fill-opacity:1;fill-rule:nonzero;stroke:none"
                d="m 1294.61,4670.67 c 145.37,304.73 456.51,515.79 816.03,515.79 449.13,0 822.7,-329.41 891.96,-759.29 181.42,211.86 450.68,346.25 751.47,346.25 h 489.11 c 359.49,0 659.12,285.96 663.78,645.41 3.94,303.64 -199.05,560.5 -476.86,638.49 -105.47,29.6 -177.17,127.48 -177.17,237.02 v 732.33 c 0,278.35 -227.97,503.46 -507.39,498.79 -273.52,-4.57 -490.33,-233.44 -490.33,-507 v -93.25 c 0,-114.69 -65.09,-202.72 -176.72,-229.04 -317.26,-74.79 -634.87,-205.8 -904.2,-372.62 -96.99,-60.06 -216.77,-50.16 -297.43,30.5 l -66.1,66.1 c -193.44,193.44 -508.58,201.97 -705.22,11.79 -200.876,-194.28 -202.903,-514.66 -6.08,-711.48 l 67.37,-67.38 c 80.73,-80.72 96.34,-202.24 36.55,-299.49 -153.92,-250.37 -280.314,-539.76 -355.513,-831.76 l 224.863,0.69 c 94.29,0 181.28,63.05 221.88,148.15"/>
            <path
                    id="path16"
                    style="fill:#72ceb1;fill-opacity:1;fill-rule:nonzero;stroke:none"
                    d="m 2854.86,1294.61 c -304.73,145.37 -515.79,456.51 -515.79,816.03 0,449.12 329.41,822.7 759.29,891.96 -211.86,181.42 -346.25,450.67 -346.25,751.47 v 489.11 c 0,359.49 -285.96,659.12 -645.41,663.78 -303.64,3.94 -560.5,-199.05 -638.49,-476.86 -29.6,-105.47 -127.48,-177.17 -237.02,-177.17 H 498.863 C 220.512,4252.93 -4.59375,4024.96 0.0742188,3745.54 4.63672,3472.01 233.504,3255.2 507.07,3255.2 h 93.25 c 114.696,0 202.723,-65.08 229.039,-176.71 74.789,-317.26 205.811,-634.88 372.621,-904.2 60.06,-96.99 50.16,-216.77 -30.5,-297.44 l -66.1,-66.1 c -193.442,-193.44 -201.966,-508.57 -11.79,-705.21 194.28,-200.868 514.66,-202.899 711.48,-6.09 l 67.38,67.38 c 80.72,80.73 202.24,96.34 299.49,36.55 250.37,-153.92 539.76,-280.31 831.76,-355.509 l -0.69,224.859 c 0,94.29 -63.05,181.28 -148.15,221.88"/>
            <path
                    id="path18"
                    style="fill:#f0895d;fill-opacity:1;fill-rule:nonzero;stroke:none"
                    d="m 6213.82,2854.86 c -145.36,-304.73 -456.51,-515.79 -816.03,-515.79 -449.12,0 -822.7,329.41 -891.96,759.29 -181.42,-211.86 -450.67,-346.25 -751.47,-346.25 h -489.11 c -359.48,0 -659.12,-285.96 -663.78,-645.41 -3.94,-303.64 199.05,-560.5 476.86,-638.49 105.47,-29.61 177.17,-127.48 177.17,-237.02 V 498.859 C 3255.5,220.512 3483.48,-4.60156 3762.89,0.0703125 4036.42,4.64063 4253.22,233.5 4253.22,507.07 v 93.25 c 0,114.692 65.09,202.731 176.73,229.032 317.25,74.796 634.86,205.818 904.2,372.618 96.98,60.07 216.76,50.17 297.43,-30.5 l 66.1,-66.09 c 193.44,-193.439 508.57,-201.97 705.21,-11.79 200.88,194.28 202.91,514.65 6.09,711.48 l -67.37,67.37 c -80.74,80.73 -96.35,202.25 -36.56,299.5 153.92,250.37 280.32,539.76 355.52,831.75 l -224.87,-0.68 c -94.28,0 -181.28,-63.05 -221.88,-148.15"/>
            <path
                    id="path20"
                    style="fill:#7ec0e6;fill-opacity:1;fill-rule:nonzero;stroke:none"
                    d="m 4653.57,6213.82 c 304.74,-145.36 515.79,-456.51 515.79,-816.03 0,-449.12 -329.4,-822.7 -759.29,-891.96 211.86,-181.42 346.26,-450.67 346.26,-751.47 v -489.11 c 0,-359.49 285.95,-659.12 645.4,-663.78 303.65,-3.94 560.51,199.05 638.49,476.87 29.61,105.46 127.48,177.16 237.03,177.16 l 732.32,0.01 c 278.35,0 503.46,227.97 498.79,507.38 -4.56,273.53 -233.43,490.33 -506.99,490.33 h -93.26 c -114.69,0 -202.72,65.09 -229.03,176.73 -74.79,317.25 -205.81,634.86 -372.62,904.2 -60.07,96.98 -50.17,216.76 30.5,297.43 l 66.1,66.09 c 193.43,193.45 201.96,508.58 11.78,705.22 -194.28,200.88 -514.65,202.91 -711.48,6.08 l -67.37,-67.37 c -80.73,-80.73 -202.24,-96.34 -299.5,-36.55 -250.37,153.92 -539.76,280.32 -831.75,355.52 l 0.69,-224.87 c 0,-94.28 63.05,-181.28 148.14,-221.88"/>
        </g>
    </g>
</svg>
